<svg xmlns="http://www.w3.org/2000/svg" width="1200" height="630" viewBox="0 0 1200 630" role="img" aria-labelledby="title desc">
  <title id="title">トクミル</title>
  <desc id="desc">買う前に価格を見比べるアプリ、トクミル</desc>
  <rect width="1200" height="630" fill="#0D1117"/>
  <rect x="72" y="72" width="88" height="88" rx="16" fill="#00875A"/>
  <path d="M94 96h44v14h-15v29h-14v-29H94z" fill="#FFFFFF"/>
  <circle cx="134" cy="137" r="12" fill="#FF5722"/>
  <text x="72" y="294" fill="#FFFFFF" font-family="'Yu Gothic UI','Yu Gothic',sans-serif" font-size="88" font-weight="800">トクミル</text>
  <text x="76" y="362" fill="#B7C0CC" font-family="'Yu Gothic UI','Yu Gothic',sans-serif" font-size="32" font-weight="600">その値段、買う前に見比べる。</text>
  <g transform="translate(730 84)">
    <rect width="386" height="462" rx="16" fill="#171D25" stroke="#53606F" stroke-width="2"/>
    <path d="M38 92V38h54M294 38h54v54M38 370v54h54M294 424h54v-54" fill="none" stroke="#00E676" stroke-width="8"/>
    <g fill="#D7DDE5">
      <rect x="108" y="135" width="8" height="120"/>
      <rect x="123" y="135" width="16" height="120"/>
      <rect x="146" y="135" width="6" height="120"/>
      <rect x="159" y="135" width="11" height="120"/>
      <rect x="178" y="135" width="5" height="120"/>
      <rect x="190" y="135" width="18" height="120"/>
      <rect x="215" y="135" width="7" height="120"/>
      <rect x="230" y="135" width="13" height="120"/>
      <rect x="251" y="135" width="6" height="120"/>
      <rect x="264" y="135" width="14" height="120"/>
    </g>
    <rect x="56" y="298" width="274" height="2" fill="#00E676"/>
    <text x="193" y="352" text-anchor="middle" fill="#AEB8C4" font-family="'Yu Gothic UI','Yu Gothic',sans-serif" font-size="18">バーコードを読み取る</text>
  </g>
</svg>
